<svg id="Calque_1" data-name="Calque 1" xmlns="http://www.w3.org/2000/svg" viewBox="0 0 100 92">
    <defs>
        <style>
            .cls-1 {
                fill: #009640;
            }

            .cls-2 {
                fill: #fff;
            }
        </style>
    </defs>
    <title>logo blanc</title>
    <circle class="cls-1" cx="84.85" cy="51.03" r="4.67" />
    <path class="cls-2"
        d="M69.37,45.22l-5.49,9.41L44.65,22.33l3.79-2.24.55-.31,3.79-2.33M78,20.77l-2.58-4.4L80.68,7.3l10.85.19L80.76,25.91l-2.45-4.6" />
    <path class="cls-2" d="M13.47,61.83a9,9,0,1,1,0,18H9.25v-18ZM11.26,78.06h2a7.22,7.22,0,0,0,0-14.44h-2Z" />
    <path class="cls-2" d="M35.05,61.83V63.6H27.8v6.34h7v1.77h-7v6.37h7.25v1.77H25.79v-18Z" />
    <path class="cls-2"
        d="M43.83,61.5A5.12,5.12,0,0,1,48.48,64L47,65a3,3,0,0,0-3-1.62,3.19,3.19,0,0,0-3.43,3.08c0,1.57,1.49,2.4,3.32,3.06C47,70.59,49.51,72,49.51,75c0,3.48-2.54,5.22-5.83,5.22a6.35,6.35,0,0,1-6-3.3l1.66-1a4.82,4.82,0,0,0,4.2,2.47c2,0,4-.94,4-3.28,0-1.92-2-3-4.9-4.06-2.68-1-4-2.52-4-4.52A5,5,0,0,1,43.83,61.5Z" />
    <path class="cls-2" d="M54.68,61.83v18h-2v-18Z" />
    <path class="cls-2"
        d="M66.7,61.5a8.48,8.48,0,0,1,6.94,3.08L72.33,66a6.59,6.59,0,0,0-5.55-2.71c-3.82,0-6.72,3.36-6.72,7.56s3,7.49,6.72,7.49c3.15,0,6.19-2.12,6.19-5.48v-.53H66.7V70.74H75v1.75c0,4.57-3.63,7.71-8.32,7.71a9.06,9.06,0,0,1-8.78-9.32C57.92,65.68,61.63,61.5,66.7,61.5Z" />
    <path class="cls-2" d="M80.17,61.83l9.35,14.62V61.83h2v18h-2L80.17,65.24V79.85h-2v-18Z" />
    <path class="cls-2"
        d="M33.24,7.3q-10.37,0-16.34,3.59A14.54,14.54,0,0,0,12,15.73a11.71,11.71,0,0,0-1.72,6.17,18.21,18.21,0,0,0,.35,3.42A11.73,11.73,0,0,0,12,28.89a14.13,14.13,0,0,0,2.77,3.35A14.84,14.84,0,0,0,19.42,35a26.1,26.1,0,0,0,6,1.73c2,.34,4.15.62,6.3.85l2.92-10.21q-3.18-.34-6.15-.73a18.77,18.77,0,0,1-5.15-1.3A4.48,4.48,0,0,1,21,23.7a3.74,3.74,0,0,1-.43-1.8,2.07,2.07,0,0,1,.74-1.37,6.57,6.57,0,0,1,2.3-1.35,22.12,22.12,0,0,1,4-1,33.13,33.13,0,0,1,5.64-.42H35.4c.68,0,1.35,0,2,.07.18-.57.37-1.18.56-1.84s.39-1.18.6-1.87.43-1.37.67-2.08l.14-.63c.33-1,.6-1.84.81-2.54s.32-1.08.32-1.13A56,56,0,0,0,33.24,7.3Z" />
    <path class="cls-2"
        d="M26.88,54.55l2.48-8.66a9.68,9.68,0,0,1-5.75,0c-.33-.13-.69-.28-1.09-.46a5.5,5.5,0,0,1-1.34-.85,4.42,4.42,0,0,1-1.09-1.34,4,4,0,0,1-.46-2H14.8v-.07l-.35.07H9.25S10.31,55.82,26.88,54.55Z" />
</svg>