<svg xmlns="http://www.w3.org/2000/svg" width="728.901" height="1107.744" viewBox="0 0 728.901 1107.744"><defs><style>.a{fill:#8e8e8e;opacity:0.1;}</style></defs><path class="a" d="M158.065,850.025q38.771,0,65.612,26.079t26.841,62.73q0,36.651-26.841,62.025t-65.612,25.374q-38.771,0-65.612-25.374T65.612,938.833q0-36.651,26.841-62.73T158.065,850.025Zm38.771-717.517q-52.191,0-93.944,9.163T22.368,181.846L0,50.748Q87.98,0,196.836,0q76.05,0,142.408,25.374T454.356,93.742a318.672,318.672,0,0,1,76.8,100.791,277.371,277.371,0,0,1,28.041,122.64q0,159.292-166.989,255.148a397.8,397.8,0,0,1-55.43,26.784,257.6,257.6,0,0,0-53.2,28.193,139.481,139.481,0,0,0-39.9,42.29q-15.518,25.374-15.518,67.664v43.7H83.506V730.2q0-64.844,27.587-109.954t66.358-74.712q38.771-29.6,79.033-47.928t67.1-29.6q46.226-19.735,68.594-63.435t22.368-90.218A152.608,152.608,0,0,0,397.4,243.166a189.413,189.413,0,0,0-46.227-57.8Q322.1,160.7,281.833,146.6A255.346,255.346,0,0,0,196.836,132.508Z" transform="matrix(0.985, 0.174, -0.174, 0.985, 178.203, 0)"/></svg>