<svg xmlns="http://www.w3.org/2000/svg" width="150" height="40" viewBox="0 0 191.93 54.78">
  <g id="Calque_1" data-name="Calque 1" transform="translate(-26.07 -27.142)">
    <g id="Groupe_2" data-name="Groupe 2" transform="translate(26.07 27.142)">
      <path id="Tracé_1" data-name="Tracé 1" d="M30.343,84.242a4.33,4.33,0,1,1,0,8.661,4.1,4.1,0,0,1-3.036-1.254,4.444,4.444,0,0,1,0-6.153A4.1,4.1,0,0,1,30.343,84.242Z" transform="translate(-26.07 -50.219)" fill="#ff1d4e"/>
      <path id="Tracé_2" data-name="Tracé 2" d="M60.094,62.643a4.83,4.83,0,0,0-2.268.555,6.145,6.145,0,0,0-1.858,1.5,7.18,7.18,0,0,0-1.255,2.2,7.82,7.82,0,0,0-.458,2.7,7.227,7.227,0,0,0,.458,2.631,6.15,6.15,0,0,0,1.255,2.027,5.84,5.84,0,0,0,1.858,1.327,5.4,5.4,0,0,0,2.268.483,6.551,6.551,0,0,0,2.92-.7,7.156,7.156,0,0,0,2.438-1.954l4.1,4.054A12.467,12.467,0,0,1,65.4,80.694,11.9,11.9,0,0,1,60.094,81.9a12.076,12.076,0,0,1-4.875-.989,12.525,12.525,0,0,1-3.958-2.7A12.941,12.941,0,0,1,48.583,74.2a12.627,12.627,0,0,1,0-9.8A12.955,12.955,0,0,1,51.262,60.4a12.524,12.524,0,0,1,3.958-2.7,12.489,12.489,0,0,1,10.329.265A12.579,12.579,0,0,1,69.8,61.389L65.162,64.96a9.779,9.779,0,0,0-2.534-1.81A6.155,6.155,0,0,0,60.094,62.643Z" transform="translate(-34.769 -39.091)" fill="#fff"/>
      <path id="Tracé_3" data-name="Tracé 3" d="M101.809,56.707a11.94,11.94,0,0,1,4.826.99,12.546,12.546,0,0,1,3.958,2.7,12.974,12.974,0,0,1,2.678,4.005,12.62,12.62,0,0,1,0,9.8,12.96,12.96,0,0,1-2.678,4.005,12.548,12.548,0,0,1-3.958,2.7,12.386,12.386,0,0,1-9.7,0,12.525,12.525,0,0,1-3.958-2.7A12.931,12.931,0,0,1,90.3,74.2a12.627,12.627,0,0,1,0-9.8A12.945,12.945,0,0,1,92.977,60.4a12.524,12.524,0,0,1,3.958-2.7A12.057,12.057,0,0,1,101.809,56.707Zm0,19.354a5.25,5.25,0,0,0,2.244-.483,5.929,5.929,0,0,0,1.834-1.327,6.16,6.16,0,0,0,1.255-2.027,7.227,7.227,0,0,0,.459-2.631,7.821,7.821,0,0,0-.459-2.7,7.192,7.192,0,0,0-1.255-2.2,6.259,6.259,0,0,0-1.834-1.5,4.694,4.694,0,0,0-2.244-.555,4.83,4.83,0,0,0-2.268.555,6.145,6.145,0,0,0-1.858,1.5,7.18,7.18,0,0,0-1.255,2.2,7.807,7.807,0,0,0-.458,2.7,7.215,7.215,0,0,0,.458,2.631,6.151,6.151,0,0,0,1.255,2.027,5.84,5.84,0,0,0,1.858,1.327A5.4,5.4,0,0,0,101.809,76.061Z" transform="translate(-51.628 -39.091)" fill="#fff"/>
      <path id="Tracé_4" data-name="Tracé 4" d="M160.134,38.887V74.12h-5.7l-.965-2.075a8.255,8.255,0,0,1-3.064,1.906,11.656,11.656,0,0,1-8.808-.241,11.44,11.44,0,0,1-3.741-2.7A12.674,12.674,0,0,1,135.4,67a13.891,13.891,0,0,1,0-9.8A12.687,12.687,0,0,1,137.86,53.2a11.438,11.438,0,0,1,3.741-2.7,11.271,11.271,0,0,1,4.73-.99,13.988,13.988,0,0,1,4.03.531,7.858,7.858,0,0,1,3.113,1.786V38.887ZM153.474,62.2a9.024,9.024,0,0,0-.483-3.161,5.147,5.147,0,0,0-3.355-3.234,7.971,7.971,0,0,0-2.437-.363,5.675,5.675,0,0,0-2.437.532,6.4,6.4,0,0,0-3.306,3.547,7.214,7.214,0,0,0,0,5.189,6.555,6.555,0,0,0,1.327,2.1,6.451,6.451,0,0,0,1.979,1.423,5.666,5.666,0,0,0,2.437.531,5.989,5.989,0,0,0,6.274-6.564Z" transform="translate(-69.894 -31.889)" fill="#fff"/>
      <path id="Tracé_5" data-name="Tracé 5" d="M207.923,38.887V74.12h-5.7l-.965-2.075a8.255,8.255,0,0,1-3.064,1.906,11.656,11.656,0,0,1-8.809-.241,11.437,11.437,0,0,1-3.74-2.7A12.663,12.663,0,0,1,183.188,67a13.882,13.882,0,0,1,0-9.8A12.676,12.676,0,0,1,185.65,53.2a11.435,11.435,0,0,1,3.74-2.7,11.275,11.275,0,0,1,4.73-.99,13.983,13.983,0,0,1,4.03.531,7.854,7.854,0,0,1,3.113,1.786V38.887ZM201.263,62.2a9.025,9.025,0,0,0-.482-3.161,5.147,5.147,0,0,0-3.355-3.234,7.975,7.975,0,0,0-2.438-.363,5.675,5.675,0,0,0-2.437.532,6.406,6.406,0,0,0-3.306,3.547,7.214,7.214,0,0,0,0,5.189,6.546,6.546,0,0,0,1.328,2.1,6.449,6.449,0,0,0,1.979,1.423,5.666,5.666,0,0,0,2.437.531,5.988,5.988,0,0,0,6.274-6.564Z" transform="translate(-89.208 -31.889)" fill="#fff"/>
      <path id="Tracé_6" data-name="Tracé 6" d="M242.176,81.922a35.92,35.92,0,0,1-2.9-4.585,47.214,47.214,0,0,1-2.787-6.262,48.772,48.772,0,0,1-2.087-7.686,49.235,49.235,0,0,1,.012-17.7,50.752,50.752,0,0,1,2.088-7.71,44.944,44.944,0,0,1,2.787-6.275,37.025,37.025,0,0,1,2.884-4.561l4.778,2.051a33.176,33.176,0,0,0-2.884,5.6,47.1,47.1,0,0,0-2.582,8.615,54.216,54.216,0,0,0-1.05,11.125,54.354,54.354,0,0,0,.978,10.643,48.506,48.506,0,0,0,2.485,8.639,33.945,33.945,0,0,0,3.053,6.057Z" transform="translate(-109.946 -27.142)" fill="#00ffce"/>
      <path id="Tracé_7" data-name="Tracé 7" d="M263.419,57.841V81.782h6.656V57.841Z" transform="translate(-121.994 -39.549)" fill="#fff"/>
      <path id="Tracé_8" data-name="Tracé 8" d="M270.185,43.659a3.668,3.668,0,1,1-7.335,0,3.628,3.628,0,0,1,1.061-2.634,3.675,3.675,0,0,1,5.214,0A3.628,3.628,0,0,1,270.185,43.659Z" transform="translate(-121.764 -32.315)" fill="#ffda00"/>
      <path id="Tracé_9" data-name="Tracé 9" d="M295.4,57.841a13.085,13.085,0,0,1,2.983.386,8.245,8.245,0,0,1,5.509,4.392,10.483,10.483,0,0,1,.987,4.875V81.78h-6.66V67.773a4.4,4.4,0,0,0-.362-1.877,3.241,3.241,0,0,0-.966-1.228,4.1,4.1,0,0,0-1.375-.674,5.707,5.707,0,0,0-1.544-.216,4.978,4.978,0,0,0-1.376.216,4.407,4.407,0,0,0-1.4.7,3.929,3.929,0,0,0-1.086,1.252,3.664,3.664,0,0,0-.434,1.829V81.78h-6.661V57.841h5.7l.965,1.833a10.424,10.424,0,0,1,2.6-1.327A9.4,9.4,0,0,1,295.4,57.841Z" transform="translate(-129.915 -39.549)" fill="#fff"/>
      <path id="Tracé_10" data-name="Tracé 10" d="M330.668,81.922l-4.8-2.052a31.241,31.241,0,0,0,3.5-7.058,50.16,50.16,0,0,0,2.22-8.7,58.4,58.4,0,0,0,.772-9.556,59.494,59.494,0,0,0-.748-9.472,49.6,49.6,0,0,0-2.2-8.723,31.337,31.337,0,0,0-3.547-7.168l4.8-2.051a41.33,41.33,0,0,1,6.31,12.693,50.057,50.057,0,0,1,2.184,14.721,50.661,50.661,0,0,1-2.123,14.5A40.967,40.967,0,0,1,330.668,81.922Z" transform="translate(-147.231 -27.142)" fill="#00ffce"/>
    </g>
  </g>
</svg>
